<svg width="82" height="18" viewBox="0 0 82 18" fill="none" xmlns="http://www.w3.org/2000/svg">
<path d="M3.71842 9.32955V17H0.633197V3.90909H3.58206V6.13352H3.73547C4.03661 5.40057 4.51672 4.81818 5.17581 4.38636C5.84058 3.95455 6.66161 3.73864 7.63888 3.73864C8.54229 3.73864 9.32922 3.93182 9.99967 4.31818C10.6758 4.70455 11.1985 5.2642 11.5679 5.99716C11.9429 6.73011 12.1275 7.61932 12.1218 8.66477V17H9.03661V9.14205C9.03661 8.26705 8.80933 7.58239 8.35479 7.08807C7.90592 6.59375 7.28377 6.34659 6.48831 6.34659C5.94854 6.34659 5.46842 6.46591 5.04797 6.70455C4.6332 6.9375 4.30649 7.27557 4.06786 7.71875C3.8349 8.16193 3.71842 8.69886 3.71842 9.32955ZM20.0937 17.2557C18.7812 17.2557 17.6476 16.983 16.6931 16.4375C15.7442 15.8864 15.0141 15.108 14.5027 14.1023C13.9914 13.0909 13.7357 11.9006 13.7357 10.5312C13.7357 9.18466 13.9914 8.00284 14.5027 6.9858C15.0198 5.96307 15.7414 5.16761 16.6675 4.59943C17.5937 4.02557 18.6817 3.73864 19.9317 3.73864C20.7385 3.73864 21.4999 3.86932 22.2158 4.13068C22.9374 4.38636 23.5738 4.78409 24.1249 5.32386C24.6817 5.86364 25.1192 6.55114 25.4374 7.38636C25.7556 8.21591 25.9147 9.20455 25.9147 10.3523V11.2983H15.1846V9.21875H22.9573C22.9516 8.62784 22.8238 8.10227 22.5738 7.64205C22.3238 7.17614 21.9743 6.80966 21.5255 6.54261C21.0823 6.27557 20.5652 6.14205 19.9743 6.14205C19.3437 6.14205 18.7897 6.29545 18.3124 6.60227C17.8351 6.90341 17.463 7.30114 17.1959 7.79545C16.9346 8.28409 16.801 8.82102 16.7954 9.40625V11.2216C16.7954 11.983 16.9346 12.6364 17.213 13.1818C17.4914 13.7216 17.8806 14.1364 18.3806 14.4261C18.8806 14.7102 19.4658 14.8523 20.1363 14.8523C20.5851 14.8523 20.9914 14.7898 21.355 14.6648C21.7187 14.5341 22.034 14.3438 22.301 14.0938C22.5681 13.8438 22.7698 13.5341 22.9062 13.1648L25.7868 13.4886C25.605 14.25 25.2584 14.9148 24.7471 15.483C24.2414 16.0455 23.5937 16.483 22.8039 16.7955C22.0141 17.1023 21.1107 17.2557 20.0937 17.2557ZM31.3318 17.2642C30.5023 17.2642 29.7551 17.1165 29.0903 16.821C28.4312 16.5199 27.9085 16.0767 27.5221 15.4915C27.1415 14.9062 26.9511 14.1847 26.9511 13.3267C26.9511 12.5881 27.0875 11.9773 27.3602 11.4943C27.6329 11.0114 28.0051 10.625 28.4767 10.3352C28.9483 10.0455 29.4795 9.8267 30.0704 9.67898C30.667 9.52557 31.2835 9.41477 31.9199 9.34659C32.6869 9.26705 33.3091 9.19602 33.7864 9.13352C34.2636 9.06534 34.6102 8.96307 34.8261 8.8267C35.0477 8.68466 35.1585 8.46591 35.1585 8.17045V8.11932C35.1585 7.47727 34.9682 6.98011 34.5875 6.62784C34.2068 6.27557 33.6585 6.09943 32.9426 6.09943C32.1869 6.09943 31.5875 6.2642 31.1443 6.59375C30.7068 6.9233 30.4114 7.3125 30.2579 7.76136L27.3773 7.35227C27.6045 6.55682 27.9795 5.89205 28.5023 5.35795C29.025 4.81818 29.6642 4.41477 30.4199 4.14773C31.1756 3.875 32.0108 3.73864 32.9256 3.73864C33.5562 3.73864 34.1841 3.8125 34.8091 3.96023C35.4341 4.10795 36.0051 4.35227 36.5221 4.69318C37.0392 5.02841 37.454 5.4858 37.7665 6.06534C38.0846 6.64489 38.2437 7.36932 38.2437 8.23864V17H35.2778V15.2017H35.1756C34.9881 15.5653 34.7239 15.9062 34.3829 16.2244C34.0477 16.5369 33.6244 16.7898 33.1131 16.983C32.6074 17.1705 32.0136 17.2642 31.3318 17.2642ZM32.1329 14.9972C32.7523 14.9972 33.2892 14.875 33.7437 14.6307C34.1983 14.3807 34.5477 14.0511 34.792 13.642C35.042 13.233 35.167 12.7869 35.167 12.304V10.7614C35.0704 10.8409 34.9057 10.9148 34.6727 10.983C34.4454 11.0511 34.1898 11.1108 33.9057 11.1619C33.6216 11.2131 33.3403 11.2585 33.0619 11.2983C32.7835 11.3381 32.542 11.3722 32.3375 11.4006C31.8773 11.4631 31.4653 11.5653 31.1017 11.7074C30.7381 11.8494 30.4511 12.0483 30.2409 12.304C30.0307 12.554 29.9256 12.8778 29.9256 13.2756C29.9256 13.8438 30.1329 14.2727 30.5477 14.5625C30.9625 14.8523 31.4909 14.9972 32.1329 14.9972ZM40.386 17V3.90909H43.3775V6.09091H43.5138C43.7525 5.33523 44.1616 4.75284 44.7411 4.34375C45.3263 3.92898 45.994 3.72159 46.744 3.72159C46.9144 3.72159 47.1048 3.73011 47.315 3.74716C47.5309 3.75852 47.7099 3.77841 47.8519 3.80682V6.64489C47.7212 6.59943 47.5138 6.55966 47.2298 6.52557C46.9513 6.4858 46.6815 6.46591 46.4201 6.46591C45.8576 6.46591 45.3519 6.58807 44.9031 6.83239C44.4599 7.07102 44.1104 7.40341 43.8548 7.82955C43.5991 8.25568 43.4712 8.74716 43.4712 9.30398V17H40.386Z" fill="white"/>
<path d="M54.7371 17.2557C53.4246 17.2557 52.2911 16.983 51.3365 16.4375C50.3877 15.8864 49.6575 15.108 49.1462 14.1023C48.6348 13.0909 48.3791 11.9006 48.3791 10.5312C48.3791 9.18466 48.6348 8.00284 49.1462 6.9858C49.6632 5.96307 50.3848 5.16761 51.311 4.59943C52.2371 4.02557 53.3252 3.73864 54.5752 3.73864C55.382 3.73864 56.1433 3.86932 56.8592 4.13068C57.5808 4.38636 58.2172 4.78409 58.7683 5.32386C59.3252 5.86364 59.7627 6.55114 60.0808 7.38636C60.399 8.21591 60.5581 9.20455 60.5581 10.3523V11.2983H49.828V9.21875H57.6007C57.595 8.62784 57.4672 8.10227 57.2172 7.64205C56.9672 7.17614 56.6178 6.80966 56.1689 6.54261C55.7257 6.27557 55.2087 6.14205 54.6178 6.14205C53.9871 6.14205 53.4331 6.29545 52.9558 6.60227C52.4786 6.90341 52.1064 7.30114 51.8394 7.79545C51.578 8.28409 51.4445 8.82102 51.4388 9.40625V11.2216C51.4388 11.983 51.578 12.6364 51.8564 13.1818C52.1348 13.7216 52.524 14.1364 53.024 14.4261C53.524 14.7102 54.1092 14.8523 54.7797 14.8523C55.2286 14.8523 55.6348 14.7898 55.9985 14.6648C56.3621 14.5341 56.6774 14.3438 56.9445 14.0938C57.2115 13.8438 57.4132 13.5341 57.5496 13.1648L60.4303 13.4886C60.2485 14.25 59.9019 14.9148 59.3905 15.483C58.8848 16.0455 58.2371 16.483 57.4473 16.7955C56.6575 17.1023 55.7541 17.2557 54.7371 17.2557ZM72.5548 7.36932L69.7423 7.67614C69.6627 7.39205 69.5235 7.125 69.3247 6.875C69.1315 6.625 68.8701 6.4233 68.5406 6.26989C68.211 6.11648 67.8076 6.03977 67.3304 6.03977C66.6883 6.03977 66.1485 6.17898 65.711 6.45739C65.2792 6.7358 65.0662 7.09659 65.0718 7.53977C65.0662 7.92045 65.2054 8.23011 65.4894 8.46875C65.7792 8.70739 66.2565 8.90341 66.9213 9.05682L69.1542 9.53409C70.3929 9.80114 71.3133 10.2244 71.9156 10.804C72.5235 11.3835 72.8304 12.142 72.836 13.0795C72.8304 13.9034 72.5889 14.6307 72.1116 15.2614C71.64 15.8864 70.9838 16.375 70.1429 16.7273C69.3019 17.0795 68.336 17.2557 67.2451 17.2557C65.6429 17.2557 64.3531 16.9205 63.3758 16.25C62.3985 15.5739 61.8162 14.6335 61.6287 13.429L64.6372 13.1392C64.7735 13.7301 65.0633 14.1761 65.5065 14.4773C65.9497 14.7784 66.5264 14.929 67.2366 14.929C67.9696 14.929 68.5576 14.7784 69.0008 14.4773C69.4497 14.1761 69.6741 13.804 69.6741 13.3608C69.6741 12.9858 69.5292 12.6761 69.2394 12.4318C68.9554 12.1875 68.5122 12 67.9099 11.8693L65.6769 11.4006C64.4213 11.1392 63.4923 10.6989 62.89 10.0795C62.2877 9.45455 61.9894 8.66477 61.9951 7.71023C61.9894 6.90341 62.2082 6.20455 62.6514 5.61364C63.1002 5.01705 63.7224 4.55682 64.5179 4.23295C65.319 3.90341 66.2423 3.73864 67.2877 3.73864C68.8218 3.73864 70.0292 4.06534 70.9099 4.71875C71.7963 5.37216 72.3446 6.25568 72.5548 7.36932ZM80.957 3.90909V6.29545H73.4314V3.90909H80.957ZM75.2894 0.772727H78.3746V13.0625C78.3746 13.4773 78.4371 13.7955 78.5621 14.017C78.6928 14.233 78.8632 14.3807 79.0735 14.4602C79.2837 14.5398 79.5167 14.5795 79.7723 14.5795C79.9655 14.5795 80.1417 14.5653 80.3007 14.5369C80.4655 14.5085 80.5905 14.483 80.6757 14.4602L81.1956 16.8722C81.0309 16.929 80.7951 16.9915 80.4882 17.0597C80.1871 17.1278 79.8178 17.1676 79.3803 17.179C78.6076 17.2017 77.9115 17.0852 77.2922 16.8295C76.6729 16.5682 76.1814 16.1648 75.8178 15.6193C75.4598 15.0739 75.2837 14.392 75.2894 13.5739V0.772727Z" fill="#99F876"/>
</svg>
