<svg width="26" height="26" viewBox="0 0 26 26" fill="none" xmlns="http://www.w3.org/2000/svg">
<path d="M14.8742 22.7494C14.6837 23.0777 14.4103 23.3502 14.0814 23.5397C13.7525 23.7291 13.3796 23.8288 13 23.8288C12.6204 23.8288 12.2475 23.7291 11.9186 23.5397C11.5897 23.3502 11.3163 23.0777 11.1258 22.7494M19.5 8.66602C19.5 6.94211 18.8152 5.28881 17.5962 4.06982C16.3772 2.85084 14.7239 2.16602 13 2.16602C11.2761 2.16602 9.62279 2.85084 8.40381 4.06982C7.18482 5.28881 6.5 6.94211 6.5 8.66602C6.5 16.2494 3.25 18.416 3.25 18.416H22.75C22.75 18.416 19.5 16.2494 19.5 8.66602Z" stroke="white" stroke-width="1.5" stroke-linecap="round" stroke-linejoin="round"/>
<circle cx="20" cy="5" r="3" fill="#99F876"/>
</svg>
